<?xml version="1.0" encoding="UTF-8"?>
<!DOCTYPE svg PUBLIC "-//W3C//DTD SVG 1.1//EN" "http://www.w3.org/Graphics/SVG/1.1/DTD/svg11.dtd">
<!-- Creator: CorelDRAW X7 -->
<svg xmlns="http://www.w3.org/2000/svg" xml:space="preserve" width="65.1511mm" height="6.6802mm" version="1.1" style="shape-rendering:geometricPrecision; text-rendering:geometricPrecision; image-rendering:optimizeQuality; fill-rule:evenodd; clip-rule:evenodd"
viewBox="0 0 6013 617"
 xmlns:xlink="http://www.w3.org/1999/xlink">
 <defs>
  <style type="text/css">
   <![CDATA[
    .fil0 {fill:#FEFEFE;fill-rule:nonzero}
   ]]>
  </style>
 </defs>
 <g id="Слой_x0020_1">
  <metadata id="CorelCorpID_0Corel-Layer"/>
  <path class="fil0" d="M141 187c39,0 73,13 100,41 27,27 41,60 41,100 0,39 -14,73 -41,100 -27,27 -61,41 -100,41 -39,0 -73,-14 -100,-41 -27,-27 -41,-61 -41,-100 0,-40 14,-73 41,-100 27,-28 61,-41 100,-41zm636 430c-27,0 -51,-3 -71,-7 -20,-5 -44,-14 -73,-26l0 -99c25,21 48,36 70,45 22,9 46,14 73,14 32,0 58,-11 77,-32 20,-21 30,-50 30,-85 0,-31 -11,-56 -32,-75 -7,-6 -14,-12 -23,-16 -13,-7 -28,-10 -46,-11 -17,-1 -32,1 -45,6l0 -80c14,4 29,6 47,4 17,-2 31,-7 43,-14l14 -10c23,-18 35,-41 35,-71 0,-26 -10,-47 -30,-63 -19,-16 -45,-24 -77,-24 -23,0 -44,4 -63,12 -19,8 -40,22 -62,41l0 -99c28,-10 52,-17 71,-21 19,-4 41,-6 66,-6 58,0 105,14 140,43 35,28 53,65 53,112 0,45 -16,81 -47,109 -12,10 -25,19 -40,25l0 0c18,8 34,18 48,31 31,29 46,68 46,116 0,54 -19,97 -56,131 -37,33 -87,50 -148,50zm312 -183l0 -251c0,-38 -2,-69 -5,-95 -3,-25 -9,-51 -16,-79l111 0 0 0 226 0 0 0 -23 49 -24 49c-23,-12 -45,-21 -67,-25 -22,-5 -49,-8 -80,-8l-32 0 0 0 0 148 0 0 8 0c76,0 135,17 177,51 42,34 62,83 62,146 0,60 -22,106 -67,139 -45,33 -109,49 -191,49l-34 0 -66 0c8,-26 13,-52 16,-78 3,-25 5,-57 5,-95zm90 -139l0 239 0 0c45,-2 80,-12 105,-32 29,-22 44,-53 44,-94 0,-36 -12,-64 -35,-84 -24,-20 -57,-29 -100,-29l-14 0zm345 312c7,-26 13,-52 16,-78 3,-25 4,-57 4,-95l0 -251c0,-38 -1,-69 -4,-95 -4,-25 -9,-51 -17,-79l112 0 0 0 218 0 0 0 -23 49 -23 49c-23,-12 -46,-21 -68,-25 -22,-5 -49,-8 -80,-8l-24 0 0 0 0 196 0 0 197 0 -28 48 -27 48c-19,-11 -40,-19 -60,-24 -21,-5 -47,-8 -79,-8l-3 0 0 0 0 208 0 0c54,-1 98,-5 133,-11 46,-9 87,-23 123,-43l-25 59 -25 60 0 0 -206 0 0 0 -111 0zm421 -173l0 -251c0,-38 -1,-69 -4,-95 -4,-25 -9,-51 -17,-79l66 0 0 0 75 0c71,0 124,15 160,44 35,30 53,74 53,133 0,63 -21,109 -62,139 -39,27 -99,41 -180,43l0 0 0 66c0,38 1,69 4,95 3,25 9,51 17,78l-66 0 -66 0c7,-26 13,-52 16,-78 3,-25 4,-57 4,-95zm91 -111l0 0c49,-1 85,-11 108,-31 24,-20 35,-52 35,-96 0,-43 -10,-75 -32,-97 -21,-21 -54,-32 -97,-32l-14 0 0 0 0 256zm714 -140l-279 362 0 0c4,20 9,41 15,62l-66 0 -66 0c7,-26 13,-52 16,-78 3,-25 4,-57 4,-95l0 -251c0,-38 -1,-69 -4,-95 -3,-25 -9,-51 -17,-79l66 0 66 0c-7,27 -13,53 -16,78 -3,26 -4,57 -4,96l0 250 0 1 0 0 279 -362 0 0c-4,-21 -9,-42 -15,-63l66 0 66 0c-8,27 -13,53 -16,79 -3,25 -4,57 -4,95l0 251c0,38 1,69 4,95 3,25 9,51 17,78l-66 0 -66 0c7,-26 13,-52 16,-78 3,-25 4,-57 4,-95l0 -251 0 0zm580 251c0,38 1,69 4,95 3,25 9,51 17,78l-66 0 -66 0c7,-26 13,-52 16,-78 3,-25 4,-57 4,-95l0 -353 -62 -72 70 0 70 0c1,8 3,17 8,27 4,10 10,20 18,29l188 232 0 0 0 0 172 -219c10,-12 19,-25 25,-38 6,-12 10,-23 10,-31l63 0 65 0c-19,27 -31,54 -38,79 -8,25 -11,57 -11,95l0 251c0,38 1,69 4,95 3,25 9,51 17,78l-66 0 -66 0c7,-26 12,-52 15,-78 3,-25 5,-57 5,-95l0 -258 -1 0 -197 258 0 0 -198 -244 0 0 0 244zm605 0l0 -251c0,-38 -1,-69 -4,-95 -3,-25 -9,-51 -17,-79l67 0 0 0 74 0c71,0 124,15 160,44 35,30 53,74 53,133 0,63 -21,109 -62,139 -39,27 -99,41 -180,43l0 0 0 66c0,38 1,69 4,95 4,25 9,51 17,78l-66 0 -66 0c7,-26 13,-52 16,-78 3,-25 4,-57 4,-95zm91 -111l0 0c49,-1 85,-11 109,-31 23,-20 35,-52 35,-96 0,-43 -11,-75 -33,-97 -21,-21 -54,-32 -97,-32l-14 0 0 0 0 256zm339 111l0 -251c0,-38 -1,-69 -4,-95 -4,-25 -9,-51 -17,-79l66 0 66 0c-7,27 -13,53 -16,78 -3,26 -4,57 -4,96l0 251c0,38 1,69 4,95 3,25 9,51 17,78l-66 0 -66 0c7,-26 13,-52 16,-78 3,-25 4,-57 4,-95zm245 0l0 -251c0,-38 -1,-69 -4,-95 -4,-25 -9,-51 -17,-79l66 0 66 0c-8,27 -13,53 -16,79 -3,25 -4,57 -4,94l0 82 0 0 91 0 0 0c8,-70 38,-129 88,-178 59,-57 134,-86 224,-86 84,0 155,30 211,89 56,60 84,135 84,224 0,87 -30,159 -90,217 -60,58 -134,87 -224,87 -85,0 -155,-30 -211,-90 -48,-51 -75,-113 -83,-186l0 0 -90 0 0 0 0 93c0,38 1,69 4,95 3,25 9,51 17,78l-66 0 -66 0c7,-26 13,-52 16,-78 3,-25 4,-57 4,-95zm475 -361c-56,0 -103,20 -140,61 -37,41 -56,93 -56,155 0,73 21,134 61,182 41,49 92,73 154,73 56,0 103,-21 140,-62 37,-41 56,-92 56,-154 0,-73 -20,-134 -61,-183 -41,-48 -92,-72 -154,-72zm787 114c39,0 73,13 100,41 27,27 41,60 41,100 0,39 -14,73 -41,100 -27,27 -61,41 -100,41 -39,0 -73,-14 -100,-41 -27,-27 -41,-61 -41,-100 0,-40 14,-73 41,-100 27,-28 61,-41 100,-41z"/>
 </g>
</svg>
