<?xml version="1.0" encoding="UTF-8"?>
<!DOCTYPE svg PUBLIC "-//W3C//DTD SVG 1.1//EN" "http://www.w3.org/Graphics/SVG/1.1/DTD/svg11.dtd">
<!-- Creator: CorelDRAW X7 -->
<svg xmlns="http://www.w3.org/2000/svg" xml:space="preserve" width="69.1768mm" height="44.6052mm" version="1.1" style="shape-rendering:geometricPrecision; text-rendering:geometricPrecision; image-rendering:optimizeQuality; fill-rule:evenodd; clip-rule:evenodd"
viewBox="0 0 1727 1114"
 xmlns:xlink="http://www.w3.org/1999/xlink">
 <defs>
  <style type="text/css">
   <![CDATA[
    .fil0 {fill:#FEFEFE;fill-rule:nonzero}
   ]]>
  </style>
 </defs>
 <g id="Слой_x0020_1">
  <metadata id="CorelCorpID_0Corel-Layer"/>
  <path class="fil0" d="M47 115c-9,0 -17,-3 -24,-7 -8,-4 -13,-10 -17,-17 -4,-7 -6,-16 -6,-25 0,-8 2,-16 6,-24 4,-7 10,-13 18,-17 7,-4 15,-6 25,-6 9,0 17,2 24,6 8,4 13,9 17,17 4,7 6,15 6,24 0,10 -2,18 -6,25 -5,7 -10,13 -18,17 -7,4 -15,7 -25,7zm309 -2c0,14 1,22 3,27 2,4 6,7 13,8l0 11 -76 0 0 -11c6,-1 10,-4 12,-8 2,-4 3,-13 3,-27l0 -92 -46 0 0 92c0,14 1,22 2,27 2,4 6,7 13,8l0 11 -76 0 0 -11c7,-1 11,-4 13,-8 1,-5 2,-13 2,-27l0 -65c0,-14 -1,-22 -2,-26 -2,-4 -6,-7 -13,-9l0 -10 168 0 0 10c-7,2 -11,5 -13,9 -2,4 -3,12 -3,26l0 65zm118 48c-16,0 -29,-3 -40,-8 -11,-5 -20,-14 -26,-26 -7,-12 -10,-27 -10,-45 0,-14 2,-27 6,-37 4,-10 9,-19 16,-25 7,-7 15,-12 25,-15 10,-3 20,-5 31,-5 26,0 45,7 58,20 13,13 19,33 19,59 0,18 -3,33 -9,46 -7,12 -16,21 -28,27 -12,6 -26,9 -42,9zm-28 -83c0,22 3,39 8,50 5,11 12,17 22,17 6,0 10,-2 14,-5 4,-2 7,-6 9,-12 2,-5 4,-12 5,-19 1,-8 1,-16 1,-25 0,-23 -2,-40 -7,-51 -5,-11 -13,-17 -22,-17 -7,0 -13,3 -17,7 -5,5 -8,11 -10,20 -2,9 -3,21 -3,35zm255 40l12 15c-10,10 -20,17 -30,22 -9,4 -20,6 -31,6 -23,0 -40,-7 -52,-20 -12,-13 -18,-33 -18,-58 0,-17 3,-32 10,-45 6,-12 16,-22 28,-28 12,-7 26,-10 42,-10 8,0 17,1 25,2 9,1 16,3 23,5l0 38 -31 0c-1,-10 -4,-17 -7,-22 -3,-4 -7,-7 -13,-7 -4,0 -8,1 -11,3 -4,2 -7,6 -10,10 -2,5 -5,11 -6,20 -2,8 -2,18 -2,30 0,12 1,23 3,31 2,8 6,15 11,20 5,4 12,6 20,6 7,0 12,-1 18,-4 5,-2 11,-7 19,-14zm110 48c-7,15 -13,27 -19,35 -6,9 -13,16 -20,20 -6,4 -15,6 -26,6 -7,0 -15,-1 -22,-3l0 -36 18 0c1,5 3,9 5,10 2,2 5,3 9,3 4,0 7,-1 11,-3 3,-2 6,-6 10,-12 4,-6 9,-15 15,-27l-9 0 -41 -119c-3,-8 -5,-14 -7,-17 -1,-3 -3,-5 -6,-7 -2,-1 -4,-2 -8,-3l0 -10 79 0 0 10c-5,1 -9,2 -11,4 -2,2 -3,5 -3,9 0,5 1,11 4,19l22 69 25 -60c3,-5 4,-10 5,-14 1,-3 2,-7 2,-11 0,-4 -2,-8 -4,-11 -3,-3 -6,-4 -11,-5l0 -10 61 0 0 10c-3,1 -5,2 -7,3 -2,2 -3,4 -5,6 -2,2 -4,5 -6,10 -2,4 -5,11 -9,19l-52 115zm113 -7c-5,0 -10,1 -13,3 -3,3 -7,8 -11,17 -3,8 -6,19 -8,30l-19 0 0 -70 20 0c10,-16 19,-35 26,-57 7,-21 11,-39 11,-52 0,-6 -1,-10 -3,-13 -3,-2 -7,-4 -12,-4l0 -10 126 0 0 10c-11,1 -17,9 -17,23l0 103 26 0 0 70 -20 0c-2,-13 -5,-24 -9,-32 -3,-8 -6,-13 -9,-15 -3,-2 -8,-3 -15,-3l-73 0zm55 -20l0 -118 -27 0c-4,42 -16,82 -34,118l61 0zm-932 302c-9,0 -17,-2 -24,-6 -8,-5 -13,-10 -17,-18 -4,-7 -6,-15 -6,-25 0,-8 2,-16 6,-23 4,-8 10,-13 18,-18 7,-4 15,-6 25,-6 9,0 17,2 24,6 8,4 13,10 17,17 4,7 6,15 6,25 0,9 -2,17 -6,24 -5,8 -10,13 -18,18 -7,4 -15,6 -25,6zm202 44c-6,0 -10,1 -13,4 -4,2 -7,8 -11,16 -3,9 -6,19 -9,31l-19 0 0 -71 21 0c10,-16 18,-35 26,-56 7,-22 10,-40 10,-53 0,-6 -1,-10 -3,-13 -2,-2 -6,-3 -12,-4l0 -10 127 0 0 10c-11,1 -17,9 -17,23l0 103 25 0 0 71 -19 0c-2,-14 -5,-24 -9,-33 -3,-8 -7,-13 -10,-15 -3,-2 -8,-3 -15,-3l-72 0zm54 -20l0 -118 -26 0c-4,43 -16,82 -34,118l60 0zm236 -9c-11,12 -21,20 -32,24 -10,5 -23,7 -36,7 -25,0 -43,-6 -55,-20 -13,-13 -19,-33 -19,-59 0,-17 3,-32 10,-44 6,-13 15,-22 27,-28 11,-7 25,-10 40,-10 10,0 18,1 25,4 8,2 14,5 19,9 5,4 9,8 13,14 4,7 7,14 9,23 2,8 3,19 3,31l-100 0c0,19 4,33 10,42 7,9 17,14 31,14 8,0 15,-2 21,-5 7,-3 14,-8 21,-16l13 14zm-43 -66c0,-16 -2,-28 -6,-36 -4,-7 -10,-11 -18,-11 -8,0 -15,4 -20,12 -4,8 -7,20 -8,35l52 0zm86 -24c0,-9 -1,-16 -3,-20 -3,-3 -7,-6 -14,-7l0 -10 78 0 0 10c-6,1 -10,3 -12,7 -2,4 -3,10 -3,20l0 31 3 0c9,0 16,-2 22,-7 6,-4 11,-12 16,-24 7,-18 15,-29 21,-33 7,-5 16,-7 28,-7 5,0 11,1 17,2l0 35 -19 0c-2,-6 -5,-9 -10,-9 -6,0 -12,6 -16,16 -6,13 -13,22 -22,27l0 2c17,4 31,15 40,33l8 15c6,11 11,19 14,22 4,3 7,5 11,5l0 11 -63 0 0 -9 -19 -41c-4,-9 -8,-15 -12,-18 -4,-3 -9,-4 -16,-4l-3 0 0 26c0,14 1,23 2,27 2,4 7,7 13,8l0 11 -77 0 0 -11c7,-1 11,-4 13,-7 1,-4 3,-13 3,-28l0 -73zm245 121c-16,0 -29,-2 -40,-8 -12,-5 -20,-14 -27,-26 -6,-12 -9,-27 -9,-45 0,-14 2,-26 6,-37 4,-10 9,-18 16,-25 7,-7 15,-12 25,-15 9,-3 20,-5 31,-5 25,0 45,7 57,20 13,14 20,33 20,59 0,18 -3,34 -10,46 -6,12 -15,21 -27,27 -12,6 -26,9 -42,9zm-28 -83c0,23 2,39 7,50 5,11 13,17 23,17 5,0 10,-1 14,-4 4,-3 7,-7 9,-13 2,-5 4,-11 5,-19 1,-7 1,-16 1,-25 0,-23 -2,-39 -7,-51 -5,-11 -13,-16 -23,-16 -7,0 -12,2 -17,6 -4,5 -7,12 -9,21 -2,9 -3,20 -3,34zm194 109c0,8 0,13 1,17 1,3 2,5 4,7 2,2 6,4 12,5l0 10 -79 0 0 -10c5,-1 9,-3 11,-5 2,-2 3,-4 4,-7 1,-3 1,-9 1,-17l0 -138c0,-7 0,-12 0,-16 0,-3 -1,-5 -1,-8 -1,-2 -2,-4 -3,-5 -1,-1 -2,-3 -4,-4 -2,-1 -5,-2 -9,-3l0 -10 43 -2 20 0 -3 23 2 1c9,-9 18,-15 25,-19 8,-4 16,-6 24,-6 19,0 33,7 42,20 10,13 14,33 14,59 0,18 -2,33 -8,46 -5,12 -13,21 -24,27 -11,6 -25,9 -41,9 -10,0 -21,-1 -31,-4l0 30zm0 -80c0,13 2,23 6,29 5,6 12,9 21,9 10,0 17,-5 22,-15 5,-10 8,-25 8,-44 0,-20 -3,-36 -7,-46 -5,-10 -12,-15 -21,-15 -5,0 -10,1 -14,4 -5,2 -8,5 -11,10 -3,4 -4,9 -4,15l0 53zm-946 334c-9,0 -17,-2 -24,-6 -8,-4 -13,-10 -17,-18 -4,-7 -6,-15 -6,-24 0,-9 2,-17 6,-24 4,-7 10,-13 18,-17 7,-5 15,-7 25,-7 9,0 17,2 24,6 8,4 13,10 17,17 4,7 6,16 6,25 0,9 -2,17 -6,25 -5,7 -10,13 -18,17 -7,4 -15,6 -25,6zm185 -69c15,-20 34,-29 58,-29 23,0 40,6 52,18 12,12 18,30 18,52 0,23 -7,42 -22,55 -14,13 -33,20 -58,20 -50,0 -75,-32 -75,-94 0,-33 6,-60 20,-78 13,-19 34,-32 63,-37 20,-4 32,-7 36,-9 5,-2 8,-5 10,-10l16 0c-1,21 -6,35 -15,43 -9,8 -23,14 -42,17 -20,3 -35,8 -45,15 -11,8 -17,19 -19,36l3 1zm21 42c0,38 10,57 30,57 9,0 16,-4 21,-14 5,-9 8,-22 8,-39 0,-38 -10,-57 -30,-57 -20,0 -29,18 -29,53zm225 71l0 -10c6,-1 10,-3 13,-6 3,-4 4,-12 4,-23l0 -99 -30 0c-4,35 -9,63 -16,86 -7,23 -15,37 -23,44 -8,7 -18,11 -29,11 -7,0 -14,-1 -21,-3l0 -37 19 0c1,10 4,14 10,14 9,0 17,-13 24,-40 7,-27 11,-48 11,-61 0,-8 -1,-14 -4,-17 -3,-2 -7,-4 -11,-5l0 -10 133 0 0 10c-7,1 -12,4 -14,7 -2,4 -3,11 -3,21l0 79c0,11 1,19 4,22 2,3 6,6 13,7l0 10 -80 0zm181 3c-15,0 -29,-3 -40,-9 -11,-5 -20,-14 -26,-25 -6,-12 -10,-28 -10,-46 0,-14 2,-26 6,-36 4,-11 10,-19 16,-26 7,-7 16,-12 25,-15 10,-3 20,-5 31,-5 26,0 45,7 58,21 13,13 19,32 19,58 0,19 -3,34 -9,46 -7,12 -16,22 -28,28 -12,6 -26,9 -42,9zm-28 -83c0,22 3,39 8,50 5,11 12,16 22,16 6,0 11,-1 14,-4 4,-3 7,-7 9,-12 2,-6 4,-12 5,-20 1,-7 1,-16 1,-25 0,-22 -2,-39 -7,-50 -5,-12 -12,-17 -22,-17 -7,0 -13,2 -17,7 -5,4 -8,11 -10,20 -2,9 -3,20 -3,35zm150 -38c0,-10 -1,-17 -4,-20 -2,-4 -6,-6 -13,-8l0 -10 77 0 0 10c-5,1 -9,4 -11,7 -3,4 -4,11 -4,21l0 30 3 0c9,0 17,-2 23,-7 5,-4 11,-12 15,-24 8,-18 15,-29 22,-33 7,-4 16,-7 27,-7 6,0 12,1 17,2l0 35 -19 0c-1,-6 -5,-8 -10,-8 -6,0 -11,5 -16,16 -5,13 -13,22 -21,27l0 1c17,4 30,15 40,33l8 15c6,12 11,19 14,22 3,3 7,5 11,6l0 10 -63 0 0 -9 -19 -40c-5,-10 -9,-16 -13,-19 -3,-3 -9,-4 -15,-4l-4 0 0 27c0,13 1,22 3,26 2,4 6,7 13,9l0 10 -77 0 0 -10c7,-2 11,-5 12,-8 2,-4 3,-13 4,-27l0 -73zm333 80c0,10 1,17 4,21 2,3 6,6 13,7l0 10 -77 0 0 -10c6,-1 10,-4 12,-8 2,-4 3,-10 3,-20l0 -32 -52 0 0 32c0,11 1,18 3,21 2,4 6,6 12,7l0 10 -77 0 0 -10c6,-1 11,-4 13,-7 2,-4 3,-11 3,-21l0 -80c0,-12 -1,-19 -4,-22 -2,-3 -7,-5 -12,-6l0 -10 77 0 0 10c-6,1 -10,3 -12,7 -2,4 -3,10 -3,21l0 28 52 0 0 -28c0,-12 -2,-19 -4,-22 -2,-3 -6,-5 -12,-6l0 -10 78 0 0 10c-7,1 -11,4 -13,8 -3,3 -4,10 -4,20l0 80zm118 41c-15,0 -28,-3 -39,-9 -12,-5 -20,-14 -27,-25 -6,-12 -9,-28 -9,-46 0,-14 2,-26 6,-36 4,-11 9,-19 16,-26 7,-7 15,-12 25,-15 9,-3 20,-5 31,-5 25,0 44,7 57,21 13,13 20,32 20,58 0,19 -3,34 -10,46 -6,12 -15,22 -27,28 -12,6 -26,9 -43,9zm-27 -83c0,22 2,39 7,50 5,11 13,16 23,16 5,0 10,-1 14,-4 3,-3 6,-7 9,-12 2,-6 4,-12 4,-20 1,-7 2,-16 2,-25 0,-22 -3,-39 -8,-50 -5,-12 -12,-17 -22,-17 -7,0 -13,2 -17,7 -4,4 -7,11 -9,20 -2,9 -3,20 -3,35zm123 -76l159 0 0 50 -20 0c0,-11 -2,-19 -5,-24 -4,-5 -10,-7 -18,-7l-14 0 0 94c0,13 1,22 3,25 2,4 7,7 14,8l0 10 -79 0 0 -10c7,-1 12,-4 14,-8 2,-4 3,-12 3,-25l0 -94 -14 0c-8,0 -14,2 -17,7 -4,5 -6,13 -6,24l-20 0 0 -50zm338 117c0,11 1,18 3,22 3,3 7,5 13,7l0 10 -77 0 0 -10c6,-1 10,-4 12,-8 2,-4 3,-11 3,-21l0 -60 -54 69c0,12 5,18 15,20l0 10 -76 0 0 -10c7,-2 11,-5 13,-9 2,-4 2,-13 2,-26l0 -66c0,-14 -1,-24 -3,-27 -2,-3 -6,-6 -12,-8l0 -10 76 0 0 10c-7,2 -11,5 -12,9 -2,4 -3,13 -3,26l0 53 54 -69c0,-11 -5,-17 -15,-19l0 -10 76 0 0 10c-7,2 -11,5 -13,9 -1,4 -2,13 -2,26l0 72z"/>
  <path class="fil0" d="M128 997c1,-2 1,-5 1,-8 0,-28 -7,-41 -22,-41 -9,0 -18,2 -27,6l-5 -14c14,-6 26,-9 38,-9 16,0 28,5 36,15 9,11 13,25 13,43 0,39 -7,70 -20,92 -13,22 -31,33 -56,33 -16,0 -28,-4 -37,-12 -9,-7 -13,-18 -13,-32 0,-21 7,-39 20,-55 13,-15 29,-23 49,-23 10,0 17,2 23,5zm-6 30c0,-12 -5,-18 -15,-18 -11,0 -20,7 -26,21 -7,14 -10,30 -10,46 0,8 1,14 3,18 3,4 7,6 13,6 11,0 20,-9 26,-28 6,-19 9,-34 9,-45zm150 -24c-8,0 -14,4 -20,11 -5,8 -12,24 -22,50 -7,20 -14,33 -22,39 -7,7 -16,10 -27,10 -8,0 -15,0 -21,-2l7 -33 12 0c0,10 3,15 7,15 10,0 19,-13 29,-38 12,-31 22,-50 31,-58 8,-7 18,-11 28,-11l43 0 -20 89c-2,9 -3,15 -3,18 0,4 1,6 3,8 2,1 5,2 9,2l-2 8 -50 0 23 -108 -5 0zm133 56c-8,0 -16,6 -22,17 -7,11 -12,19 -15,23 -4,4 -8,8 -13,11 -6,2 -12,3 -18,3 -9,0 -17,0 -23,-2l7 -33 13 0c0,10 2,15 7,15 6,0 11,-5 17,-16 7,-11 13,-18 18,-20l0 -1c-18,-4 -26,-15 -26,-30 0,-13 5,-23 17,-31 11,-7 27,-11 48,-11 16,0 33,2 50,5l-19 86c-2,9 -3,15 -3,18 0,4 1,6 3,8 2,1 5,2 10,2l-2 8 -51 0 11 -52 -9 0zm12 -12l10 -47c-5,0 -10,-1 -14,-1 -8,0 -15,3 -20,8 -5,5 -8,12 -8,20 0,7 2,11 7,15 4,3 10,5 17,5l8 0zm193 27c-1,-6 -3,-10 -5,-13 -2,-3 -6,-4 -11,-4 -5,5 -9,9 -12,12l-9 42 -36 0 20 -88c2,-9 3,-15 3,-18 0,-4 -1,-7 -3,-8 -2,-1 -5,-2 -10,-2l2 -9 38 -2 14 0 -14 62c16,-18 30,-33 42,-44 12,-12 24,-18 38,-18 6,0 11,2 16,4l-8 32 -14 0c-1,-4 -2,-7 -4,-9 -2,-1 -4,-2 -7,-2 -3,0 -8,2 -13,6 -6,4 -14,13 -26,25l0 1c8,0 15,2 21,6 6,5 10,10 12,17l6 26c2,5 3,8 5,10 2,1 6,3 11,3l-1 8 -46 0c-1,-1 -3,-9 -6,-23l-3 -14zm122 39c-9,0 -18,-1 -25,-4 -7,-4 -12,-9 -16,-16 -4,-6 -6,-15 -6,-24 0,-4 0,-8 1,-13 0,-5 2,-11 3,-17 2,-7 5,-13 8,-19 3,-6 6,-11 11,-15 4,-5 8,-8 13,-11 5,-3 11,-5 16,-7 7,-2 14,-3 22,-3 10,0 19,2 26,6 7,4 13,9 16,16 3,7 5,15 5,24 0,11 -2,22 -6,33 -3,11 -8,21 -15,28 -6,8 -14,13 -23,17 -9,4 -19,5 -30,5zm-13 -36c0,8 1,14 4,18 2,3 6,5 12,5 3,0 6,0 9,-2 3,-1 5,-3 8,-6 3,-3 5,-7 7,-12 3,-5 5,-11 7,-18 2,-7 3,-14 4,-21 1,-7 2,-13 2,-19 0,-8 -1,-15 -4,-19 -3,-3 -6,-5 -12,-5 -7,0 -13,3 -18,10 -5,7 -10,17 -14,32 -3,14 -5,26 -5,37zm345 1l9 11c-13,16 -30,24 -48,24 -12,0 -21,-4 -28,-12 -7,-8 -11,-19 -11,-33 0,-5 1,-9 1,-13l-21 0 -12 56 -36 0 12 -56 -22 0c-4,18 -13,32 -24,43 -12,10 -26,15 -42,15 -12,0 -23,-1 -32,-5l6 -30 21 0c-1,15 2,22 9,22 10,0 18,-8 24,-25 6,-17 10,-33 10,-47 0,-17 -6,-25 -16,-25 -10,0 -21,6 -31,17l-8 -11c13,-16 30,-25 48,-25 12,0 21,4 28,13 7,8 11,19 11,33 0,4 -1,8 -1,11l22 0 11 -50 36 0 -11 50 21 0c5,-17 13,-31 24,-41 12,-10 26,-16 42,-16 12,0 23,2 32,6l-6 30 -21 0c1,-15 -2,-22 -10,-22 -9,0 -17,8 -23,25 -7,17 -10,33 -10,48 0,16 6,24 16,24 10,0 20,-6 30,-17zm118 -23l-39 0 -11 56 -36 0 20 -88c2,-9 3,-15 3,-18 0,-4 -1,-6 -3,-8 -2,-1 -5,-2 -10,-2l2 -9 35 -1 15 0 -11 54 39 0 11 -53 36 0 -20 89c-2,9 -3,15 -3,18 0,4 1,6 3,8 2,1 5,2 10,2l-2 8 -51 0 12 -56zm114 58c-9,0 -17,-1 -24,-4 -7,-4 -13,-9 -17,-16 -4,-6 -6,-15 -6,-24 0,-4 1,-8 1,-13 1,-5 2,-11 4,-17 1,-7 4,-13 7,-19 3,-6 7,-11 11,-15 4,-5 9,-8 14,-11 5,-3 10,-5 16,-7 7,-2 14,-3 21,-3 11,0 20,2 27,6 7,4 12,9 15,16 4,7 5,15 5,24 0,11 -1,22 -5,33 -4,11 -9,21 -15,28 -7,8 -15,13 -24,17 -8,4 -19,5 -30,5zm-13 -36c0,8 1,14 4,18 3,3 7,5 12,5 3,0 6,0 9,-2 3,-1 6,-3 8,-6 3,-3 6,-7 8,-12 2,-5 4,-11 6,-18 2,-7 4,-14 5,-21 1,-7 1,-13 1,-19 0,-8 -1,-15 -4,-19 -2,-3 -6,-5 -12,-5 -7,0 -13,3 -18,10 -5,7 -9,17 -13,32 -4,14 -6,26 -6,37zm206 11c-21,17 -43,25 -64,25 -13,0 -23,-2 -31,-8 -7,-5 -11,-12 -11,-21 0,-10 3,-17 9,-24 6,-6 19,-12 38,-18 12,-4 20,-8 26,-12 6,-4 9,-9 9,-16 0,-4 -2,-8 -5,-10 -3,-2 -7,-3 -12,-3 -12,0 -23,4 -36,14l-9 -12c16,-12 34,-19 55,-19 12,0 22,3 29,8 7,5 11,11 11,20 0,7 -3,14 -9,20 -5,6 -19,13 -42,20 -20,7 -31,17 -31,30 0,4 2,8 5,11 3,3 7,4 12,4 14,0 29,-7 46,-21l10 12zm68 25c-9,0 -17,-1 -24,-4 -7,-4 -13,-9 -17,-16 -4,-6 -6,-15 -6,-24 0,-4 1,-8 1,-13 1,-5 2,-11 4,-17 2,-7 4,-13 7,-19 3,-6 7,-11 11,-15 4,-5 9,-8 14,-11 5,-3 10,-5 16,-7 7,-2 14,-3 22,-3 10,0 19,2 26,6 7,4 12,9 15,16 4,7 6,15 6,24 0,11 -2,22 -6,33 -4,11 -9,21 -15,28 -7,8 -14,13 -23,17 -9,4 -19,5 -31,5zm-13 -36c0,8 2,14 4,18 3,3 7,5 12,5 3,0 6,0 9,-2 3,-1 6,-3 9,-6 2,-3 5,-7 7,-12 2,-5 4,-11 6,-18 2,-7 4,-14 5,-21 1,-7 1,-13 1,-19 0,-8 -1,-15 -3,-19 -3,-3 -7,-5 -12,-5 -7,0 -13,3 -19,10 -5,7 -9,17 -13,32 -4,14 -6,26 -6,37zm183 -138l-36 116 -21 0 16 -116 41 0zm-34 134l-8 38 -33 0 9 -38 32 0z"/>
 </g>
</svg>
