<?xml version="1.0" encoding="UTF-8"?>
<!DOCTYPE svg PUBLIC "-//W3C//DTD SVG 1.1//EN" "http://www.w3.org/Graphics/SVG/1.1/DTD/svg11.dtd">
<!-- Creator: CorelDRAW X7 -->
<svg xmlns="http://www.w3.org/2000/svg" xml:space="preserve" width="160.69mm" height="55.0778mm" version="1.1" style="shape-rendering:geometricPrecision; text-rendering:geometricPrecision; image-rendering:optimizeQuality; fill-rule:evenodd; clip-rule:evenodd"
viewBox="0 0 12856 4406"
 xmlns:xlink="http://www.w3.org/1999/xlink">
 <defs>
  <style type="text/css">
   <![CDATA[
    .fil4 {fill:#E8DBEC}
    .fil2 {fill:#EBDFED}
    .fil3 {fill:#EDE3F0}
    .fil5 {fill:#EFE6F2}
    .fil1 {fill:#FDFCFD}
    .fil0 {fill:#FEFDFE}
   ]]>
  </style>
 </defs>
 <g id="Слой_x0020_1">
  <metadata id="CorelCorpID_0Corel-Layer"/>
  <g id="_881126512">
   <path class="fil0" d="M8954 3479c0,-254 55,-550 190,-706l69 101c105,208 -192,736 -253,764l-6 -159zm3073 -534c65,-100 132,-170 290,-209 -57,115 -137,178 -290,209zm-2721 -147c-65,-73 -150,-262 -21,-368 15,16 56,-16 47,159 -3,70 -16,140 -26,209zm-1454 -846c146,-332 198,-334 348,-522 -3,242 -119,494 -348,522zm428 -441c4,-39 -93,-284 311,-259 309,396 -823,1441 -1032,1541 22,-196 157,-612 253,-744l389 7c35,-149 63,-389 79,-545zm2866 1322c27,-39 -26,-15 56,-58 -12,115 -4,45 -34,70 -42,296 -584,1430 -424,1549 161,119 646,-643 715,-745 68,-101 142,-203 202,-308 137,201 216,344 644,83 125,-76 189,-130 298,-211l217 -184c85,-135 -8,-88 -13,-95 -87,-4 -854,795 -942,420 -4,-21 -1,-59 2,-81 13,-90 26,-121 71,-192 218,-79 524,-135 472,-413 -389,-175 -715,438 -842,639 -113,179 -541,801 -673,908 91,-334 536,-1217 444,-1549 -162,-58 -242,49 -392,245 -85,112 -214,292 -281,423l-55 61 28 -60c47,-272 227,-749 1,-923l-118 -7c-113,166 -274,376 -364,590l-37 62 -20 -54c-55,-276 -425,349 -722,-89 31,-171 88,-367 18,-536 -39,-51 -181,-127 -269,127l-24 58c-93,138 -104,-28 -259,418 -62,182 -776,1170 -918,1262 71,-301 459,-1010 229,-1266 -116,-16 -170,16 -225,80l-397 524 -37 40 -20 -49c-24,-856 0,-430 708,-1194 71,-77 85,-76 149,-162 146,-199 260,-320 371,-588 279,-673 -674,-763 -1092,348l-405 -1c43,-143 409,-799 501,-974 69,-132 482,-905 488,-978l-1162 -10 -93 531c3,176 -8,30 26,96 104,-21 63,-371 218,-474 149,-99 470,-85 664,-71 -37,115 -182,374 -246,491 -90,165 -168,322 -252,482 -85,163 -180,319 -254,479 -64,138 -248,370 -234,511l701 -15c-30,179 -554,1542 -143,1806 109,-55 370,-428 462,-557 63,-89 64,-108 167,-179 -49,305 -364,1026 -259,1292 203,21 403,-286 564,-500 76,-100 150,-212 221,-316 56,-80 174,-225 212,-294 0,918 420,344 548,-242 305,148 283,149 626,30 -43,215 -236,614 -222,786 359,10 251,-655 811,-1323 28,303 -199,942 -86,1156 138,3 43,55 192,-177 118,-183 350,-567 488,-692z"/>
   <path class="fil0" d="M537 261c0,-72 13,-117 33,-166l163 -17c280,-36 373,286 333,548 -42,277 -224,346 -529,347l0 -712zm-529 -226c61,55 -8,22 101,41 50,8 73,8 115,17l17 1750c-9,143 -24,106 -34,125l-207 30c52,57 -25,23 57,46l650 6c84,-15 51,-11 96,-51 -316,-45 -267,0 -266,-355 0,-193 -13,-425 7,-613 248,24 465,32 647,-114 144,-116 272,-364 158,-623 -83,-187 -265,-270 -532,-280 -158,-6 -706,-33 -809,21z"/>
   <path class="fil0" d="M4741 650c263,-185 -215,-611 888,-557l-504 976c-84,154 -494,878 -486,985 112,22 1152,10 1338,5l76 -514c17,-120 21,-123 -20,-170 -107,87 -81,415 -271,529 -190,113 -534,76 -772,71 74,-297 977,-1789 983,-1958l-1147 -4c-62,124 -130,538 -85,637z"/>
   <path class="fil1" d="M11262 16c6,18 13,19 17,29 12,31 166,39 204,47l10 788c111,-44 198,-131 357,-108 112,17 215,127 218,254 2,141 -82,235 -202,262 -167,38 -253,-53 -374,-99 0,205 45,614 -27,773l-206 36c53,61 -94,50 284,50l1273 14 15 -448c-4,-144 -14,-81 -60,-111 -142,470 93,471 -971,471l-8 -556c132,-39 374,-72 386,-366 11,-252 -160,-373 -387,-397l0 -561 430 0c576,0 318,337 541,453l-28 -547 -1472 16z"/>
   <path class="fil1" d="M2058 35c71,72 34,27 192,63 209,648 -403,1954 713,1986 1035,31 585,-1170 714,-1987 123,-40 139,2 216,-62 -79,-37 -483,-46 -557,0 71,68 88,33 214,63 44,284 11,864 11,1179 0,379 -93,702 -485,717 -446,18 -500,-288 -499,-688 0,-338 -32,-888 6,-1192 140,-79 113,19 207,-79 -93,-44 -644,-41 -732,0z"/>
   <path class="fil1" d="M9032 29c41,49 0,35 86,51 61,11 49,-3 130,21 19,115 53,1798 -18,1859 -47,42 -117,-19 -199,81l1540 17c13,-306 28,-274 -7,-549 -164,95 -15,358 -304,431 -186,47 -491,34 -690,34 -21,-209 -48,-1820 25,-1882l138 -23c75,-22 14,5 55,-34 -156,-38 -581,-26 -756,-6z"/>
   <path class="fil2" d="M11146 2833l22 12c30,-25 22,45 34,-70 -82,43 -29,19 -56,58z"/>
   <polygon class="fil3" points="10158,2995 10101,3003 10121,3057 "/>
   <polygon class="fil4" points="7534,3581 7477,3572 7497,3621 "/>
   <polygon class="fil5" points="10666,3334 10639,3335 10611,3395 "/>
  </g>
 </g>
</svg>
